# xmcd
#
# Track frame offsets: 
#        150
#        12407
#        25730
#        39390
#        53755
#        66867
#        81910
#        93997
#        105945
#        120590
#        136222
#
# Disc length: 2016 seconds
#
# Revision: 4
# Processed by: cddbd v1.5.2PL0 Copyright (c) Steve Scherf et al.
# Submitted via: ExactAudioCopy v1.0b3
#
DISCID=8107de0b
DTITLE=Sweethearts Of The Rodeo - One Time, One Night
DYEAR=1988
DGENRE=Country
TTITLE0=Satisfy You
TTITLE1=Blue To The Bone
TTITLE2=We Won't Let That River Come Between Us
TTITLE3=So Sad (To Watch Good Love Go Bad)
TTITLE4=Don't Look Down
TTITLE5=One Time, One Night
TTITLE6=You Never Talk Sweet
TTITLE7=I Feel Fine
TTITLE8=If I Never See Midnight Again
TTITLE9=Gone Again
TTITLE10=Until I Stop Dancing
EXTD=
EXTT0=
EXTT1=
EXTT2=
EXTT3=
EXTT4=
EXTT5=
EXTT6=
EXTT7=
EXTT8=
EXTT9=
EXTT10=
PLAYORDER=
